Title                            : Repo Men
Year                             : 2010
Genre                            : Action | Sci-Fi | Thriller 
iMDB URL                         : http://www.imdb.com/title/tt1053424/

Complete name                    : Repo.Men.2010.BRRIP.720P.H264-ZEKTORM.mp4
Format                           : MPEG-4
Format profile                   : Base Media
Codec ID                         : isom
File size                        : 1.85 GiB
Duration                         : 1h 59mn
Overall bit rate                 : 2217 Kbps
Subtitles                        : English, Spanish, French (Format: VobSub) / English (Format: srt)
Video
ID                               : 1
Format                           : AVC
Format/Info                      : Advanced Video Codec
Format profile                   : High@L4.0
Format settings, CABAC           : Yes
Format settings, ReFrames        : 4 frames
Codec ID                         : avc1
Codec ID/Info                    : Advanced Video Coding
Duration                         : 1h 59mn
Bit rate mode                    : Variable
Bit rate                         : 1912 Kbps
Width                            : 1280 pixels
Height                           : 544 pixels
Display aspect ratio             : 2.35
Frame rate mode                  : Constant
Frame rate                       : 23.976 fps
Resolution                       : 24 bits
Colorimetry                      : 4:2:0
Scan type                        : Progressive
Bits/(Pixel*Frame)               : 0.115
Stream size                      : 1.59 GiB (86%)
Title                            : Video
Writing library                  : x264

Audio #1
ID                               : 2
Format                           : AAC
Format/Info                      : Advanced Audio Codec
Format version                   : Version 4
Format profile                   : LC
Format settings, SBR             : Yes
Format settings, PS              : No
Codec ID                         : 40
Duration                         : 1h 59mn
Bit rate mode                    : Variable
Bit rate                         : 221 Kbps
Maximum bit rate                 : 281 Kbps
Channel(s)                       : 6 channels
Channel positions                : Front: L C R, Rear: L R, LFE
Sampling rate                    : 48.0 KHz
Resolution                       : 16 bits
Stream size                      : 189 MiB (10%)
Title                            : English
Language                         : English

Audio #2
ID                               : 3
Format                           : AAC
Format/Info                      : Advanced Audio Codec
Format version                   : Version 4
Format profile                   : LC
Format settings, SBR             : Yes
Format settings, PS              : No
Codec ID                         : 40
Duration                         : 1h 59mn
Bit rate mode                    : Variable
Bit rate                         : 83.6 Kbps
Maximum bit rate                 : 110 Kbps
Channel(s)                       : 2 channels
Channel positions                : L R
Sampling rate                    : 48.0 KHz
Resolution                       : 16 bits
Stream size                      : 71.5 MiB (4%)
Language                         : English
